<svg xmlns="http://www.w3.org/2000/svg" viewBox="0 0 1100 1320" font-family="Arial, sans-serif" font-size="12" fill="#111" stroke="#111">

  <!-- Page background -->
  <rect width="1100" height="1320" fill="#fff" stroke="none"/>

  <!-- ===== SIDEBAR ===== -->
  <rect x="10" y="10" width="180" height="1300" fill="none" stroke="#111" stroke-width="1.5"/>
  <!-- Logo area -->
  <rect x="10" y="10" width="180" height="50" fill="none" stroke="#111" stroke-width="1.5"/>
  <text x="100" y="40" text-anchor="middle" font-size="13" font-weight="bold">OBE SYSTEM</text>
  <!-- Nav items -->
  <rect x="18" y="72" width="164" height="28" fill="#ddd" stroke="#111" stroke-width="1"/>
  <text x="30" y="91" font-size="12">Jadwal Mengajar</text>
  <rect x="18" y="106" width="164" height="28" fill="none" stroke="#111" stroke-width="1"/>
  <text x="30" y="125" font-size="12">Dashboard</text>
  <rect x="18" y="140" width="164" height="28" fill="none" stroke="#111" stroke-width="1"/>
  <text x="30" y="159" font-size="12">Mata Kuliah</text>
  <rect x="18" y="174" width="164" height="28" fill="none" stroke="#111" stroke-width="1"/>
  <text x="30" y="193" font-size="12">Mahasiswa</text>
  <rect x="18" y="208" width="164" height="28" fill="none" stroke="#111" stroke-width="1"/>
  <text x="30" y="227" font-size="12">Dosen</text>

  <!-- ===== TOP NAVBAR ===== -->
  <rect x="200" y="10" width="890" height="50" fill="none" stroke="#111" stroke-width="1.5"/>
  <text x="220" y="40" font-size="14" font-weight="bold">Jadwal Mengajar</text>
  <!-- User avatar placeholder -->
  <circle cx="1060" cy="35" r="16" fill="none" stroke="#111" stroke-width="1.5"/>
  <text x="1060" y="40" text-anchor="middle" font-size="12">A</text>
  <text x="1082" y="40" font-size="12">Admin</text>

  <!-- ===== ACTION BUTTONS ===== -->
  <!-- Sync dari API -->
  <rect x="200" y="76" width="140" height="32" fill="none" stroke="#111" stroke-width="1.5"/>
  <text x="270" y="97" text-anchor="middle" font-size="11">Sync dari API</text>
  <!-- Tambah Jadwal -->
  <rect x="350" y="76" width="130" height="32" fill="none" stroke="#111" stroke-width="1.5"/>
  <text x="415" y="97" text-anchor="middle" font-size="11">+ Tambah Jadwal</text>
  <!-- Export dropdown -->
  <rect x="490" y="76" width="110" height="32" fill="none" stroke="#111" stroke-width="1.5"/>
  <text x="545" y="97" text-anchor="middle" font-size="11">Export  ▼</text>
  <!-- Export dropdown items -->
  <rect x="490" y="108" width="110" height="26" fill="#fff" stroke="#111" stroke-width="1"/>
  <text x="545" y="126" text-anchor="middle" font-size="11">Excel</text>
  <rect x="490" y="134" width="110" height="26" fill="#fff" stroke="#111" stroke-width="1"/>
  <text x="545" y="152" text-anchor="middle" font-size="11">PDF</text>
  <text x="610" y="97" font-size="10" fill="#555">(admin only: Sync &amp; Tambah)</text>

  <!-- ===== FILTER SECTION ===== -->
  <rect x="200" y="170" width="890" height="100" fill="none" stroke="#111" stroke-width="1.5"/>
  <!-- Filter header bar -->
  <rect x="200" y="170" width="890" height="32" fill="#ddd" stroke="#111" stroke-width="1.5"/>
  <text x="220" y="191" font-size="12" font-weight="bold">Filter Jadwal</text>

  <!-- Program Studi field (locked) -->
  <text x="220" y="218" font-size="10">Program Studi</text>
  <rect x="220" y="222" width="200" height="30" fill="#eee" stroke="#111" stroke-width="1"/>
  <text x="228" y="242" font-size="11">[lock] Teknik Informatika</text>

  <!-- Tahun Akademik -->
  <text x="432" y="218" font-size="10">Tahun Akademik</text>
  <rect x="432" y="222" width="180" height="30" fill="#fff" stroke="#111" stroke-width="1"/>
  <text x="440" y="242" font-size="11">Semua Tahun  ▼</text>

  <!-- Semester -->
  <text x="624" y="218" font-size="10">Semester</text>
  <rect x="624" y="222" width="180" height="30" fill="#fff" stroke="#111" stroke-width="1"/>
  <text x="632" y="242" font-size="11">Semua Semester  ▼</text>

  <!-- Apply button -->
  <rect x="816" y="222" width="120" height="30" fill="#ddd" stroke="#111" stroke-width="1.5"/>
  <text x="876" y="242" text-anchor="middle" font-size="11">Terapkan</text>
  <!-- Reset button -->
  <rect x="948" y="222" width="36" height="30" fill="#fff" stroke="#111" stroke-width="1.5"/>
  <text x="966" y="242" text-anchor="middle" font-size="11">↺</text>

  <!-- ===== SCHEDULE GRID LABEL ===== -->
  <text x="200" y="292" font-size="11" fill="#555">Jadwal per Hari — 3 kolom (col-12 col-md-6 col-lg-4)</text>

  <!-- ===== DAY CARD: SENIN ===== -->
  <rect x="200" y="300" width="280" height="360" fill="none" stroke="#111" stroke-width="1.5"/>
  <!-- Day header -->
  <rect x="200" y="300" width="280" height="36" fill="#ddd" stroke="#111" stroke-width="1.5"/>
  <text x="340" y="323" text-anchor="middle" font-size="13" font-weight="bold">SENIN</text>
  <rect x="454" y="308" width="22" height="18" rx="9" fill="none" stroke="#111" stroke-width="1.5"/>
  <text x="465" y="321" text-anchor="middle" font-size="10" fill="#111">3</text>

  <!-- Course card 1 -->
  <rect x="210" y="346" width="260" height="94" fill="none" stroke="#111" stroke-width="1"/>
  <line x1="210" y1="346" x2="210" y2="440" stroke="#111" stroke-width="4"/>
  <text x="222" y="364" font-size="11" font-weight="bold">Pemrograman Web</text>
  <rect x="448" y="350" width="18" height="18" fill="none" stroke="#111" stroke-width="1"/>
  <text x="457" y="363" text-anchor="middle" font-size="10">⋮</text>
  <text x="222" y="380" font-size="10">08:00 - 09:40</text>
  <text x="222" y="394" font-size="10">Lab Komputer 1</text>
  <text x="222" y="408" font-size="10">2024/2025 Genap · Reguler · Kelas A</text>
  <text x="222" y="422" font-size="10">45 mahasiswa</text>
  <rect x="222" y="427" width="90" height="14" rx="7" fill="none" stroke="#111" stroke-width="1.5"/>
  <text x="267" y="439" text-anchor="middle" font-size="9" fill="#111">★ Dr. Budi S.</text>
  <rect x="318" y="427" width="60" height="14" rx="7" fill="none" stroke="#111" stroke-width="1.5"/>
  <text x="348" y="439" text-anchor="middle" font-size="9" fill="#111">+2 lainnya</text>

  <!-- Course card 2 -->
  <rect x="210" y="450" width="260" height="80" fill="none" stroke="#111" stroke-width="1"/>
  <line x1="210" y1="450" x2="210" y2="530" stroke="#111" stroke-width="4"/>
  <text x="222" y="468" font-size="11" font-weight="bold">Kalkulus Lanjut</text>
  <text x="222" y="484" font-size="10">10:00 - 11:40</text>
  <text x="222" y="498" font-size="10">Gedung A Ruang 201</text>
  <text x="222" y="512" font-size="10">60 mahasiswa</text>
  <rect x="222" y="517" width="95" height="14" rx="7" fill="none" stroke="#111" stroke-width="1.5"/>
  <text x="269" y="529" text-anchor="middle" font-size="9" fill="#111">★ Prof. Andi R.</text>

  <!-- Course card 3 -->
  <rect x="210" y="540" width="260" height="70" fill="none" stroke="#111" stroke-width="1"/>
  <line x1="210" y1="540" x2="210" y2="610" stroke="#111" stroke-width="4"/>
  <text x="222" y="558" font-size="11" font-weight="bold">Basis Data</text>
  <text x="222" y="574" font-size="10">13:00 - 14:40</text>
  <text x="222" y="588" font-size="10">Ruang belum diatur</text>
  <rect x="222" y="595" width="95" height="14" rx="7" fill="none" stroke="#111" stroke-width="1.5"/>
  <text x="269" y="607" text-anchor="middle" font-size="9" fill="#111">★ Ibu Citra M.</text>

  <!-- ===== DAY CARD: SELASA ===== -->
  <rect x="500" y="300" width="280" height="360" fill="none" stroke="#111" stroke-width="1.5"/>
  <rect x="500" y="300" width="280" height="36" fill="#ddd" stroke="#111" stroke-width="1.5"/>
  <text x="640" y="323" text-anchor="middle" font-size="13" font-weight="bold">SELASA</text>
  <rect x="754" y="308" width="22" height="18" rx="9" fill="none" stroke="#111" stroke-width="1.5"/>
  <text x="765" y="321" text-anchor="middle" font-size="10" fill="#111">2</text>

  <!-- Course card 1 -->
  <rect x="510" y="346" width="260" height="90" fill="none" stroke="#111" stroke-width="1"/>
  <line x1="510" y1="346" x2="510" y2="436" stroke="#111" stroke-width="4"/>
  <text x="522" y="364" font-size="11" font-weight="bold">Struktur Data</text>
  <rect x="748" y="350" width="18" height="18" fill="none" stroke="#111" stroke-width="1"/>
  <text x="757" y="363" text-anchor="middle" font-size="10">⋮</text>
  <text x="522" y="380" font-size="10">07:30 - 09:10</text>
  <text x="522" y="394" font-size="10">Lab Jaringan · Kelas B</text>
  <text x="522" y="408" font-size="10">38 mahasiswa</text>
  <rect x="522" y="415" width="100" height="14" rx="7" fill="none" stroke="#111" stroke-width="1.5"/>
  <text x="572" y="427" text-anchor="middle" font-size="9" fill="#111">★ Dr. Hendra K.</text>

  <!-- Course card 2 -->
  <rect x="510" y="446" width="260" height="80" fill="none" stroke="#111" stroke-width="1"/>
  <line x1="510" y1="446" x2="510" y2="526" stroke="#111" stroke-width="4"/>
  <text x="522" y="464" font-size="11" font-weight="bold">Algoritma Pemrograman</text>
  <text x="522" y="480" font-size="10">10:00 - 11:40</text>
  <text x="522" y="494" font-size="10">Aula Teknik</text>
  <text x="522" y="508" font-size="10">60 mahasiswa</text>
  <rect x="522" y="515" width="100" height="14" rx="7" fill="none" stroke="#111" stroke-width="1.5"/>
  <text x="572" y="527" text-anchor="middle" font-size="9" fill="#111">★ Prof. Dewi L.</text>

  <!-- ===== DAY CARD: RABU (empty) ===== -->
  <rect x="800" y="300" width="280" height="360" fill="none" stroke="#111" stroke-width="1.5"/>
  <rect x="800" y="300" width="280" height="36" fill="#ddd" stroke="#111" stroke-width="1.5"/>
  <text x="940" y="323" text-anchor="middle" font-size="13" font-weight="bold">RABU</text>
  <rect x="1054" y="308" width="22" height="18" rx="9" fill="none" stroke="#111" stroke-width="1.5"/>
  <text x="1065" y="321" text-anchor="middle" font-size="10" fill="#111">0</text>
  <!-- Empty state -->
  <text x="940" y="475" text-anchor="middle" font-size="28">☽</text>
  <text x="940" y="506" text-anchor="middle" font-size="12">Tidak ada jadwal</text>

  <!-- ===== SECOND ROW OF CARDS ===== -->
  <!-- DAY CARD: KAMIS -->
  <rect x="200" y="680" width="280" height="200" fill="none" stroke="#111" stroke-width="1.5"/>
  <rect x="200" y="680" width="280" height="36" fill="#ddd" stroke="#111" stroke-width="1.5"/>
  <text x="340" y="703" text-anchor="middle" font-size="13" font-weight="bold">KAMIS</text>
  <rect x="454" y="688" width="22" height="18" rx="9" fill="none" stroke="#111" stroke-width="1.5"/>
  <text x="465" y="701" text-anchor="middle" font-size="10" fill="#111">1</text>

  <rect x="210" y="726" width="260" height="144" fill="none" stroke="#111" stroke-width="1"/>
  <line x1="210" y1="726" x2="210" y2="870" stroke="#111" stroke-width="4"/>
  <text x="222" y="744" font-size="11" font-weight="bold">Sistem Operasi</text>
  <text x="222" y="760" font-size="10">09:00 - 10:40</text>
  <text x="222" y="774" font-size="10">Lab OS</text>
  <text x="222" y="788" font-size="10">2024/2025 · Reguler</text>
  <text x="222" y="802" font-size="10">38 mahasiswa</text>
  <rect x="222" y="808" width="90" height="14" rx="7" fill="none" stroke="#111" stroke-width="1.5"/>
  <text x="267" y="820" text-anchor="middle" font-size="9" fill="#111">★ Dr. Eko P.</text>

  <!-- DAY CARD: JUMAT -->
  <rect x="500" y="680" width="280" height="200" fill="none" stroke="#111" stroke-width="1.5"/>
  <rect x="500" y="680" width="280" height="36" fill="#ddd" stroke="#111" stroke-width="1.5"/>
  <text x="640" y="703" text-anchor="middle" font-size="13" font-weight="bold">JUMAT</text>
  <rect x="754" y="688" width="22" height="18" rx="9" fill="none" stroke="#111" stroke-width="1.5"/>
  <text x="765" y="701" text-anchor="middle" font-size="10" fill="#111">1</text>

  <rect x="510" y="726" width="260" height="144" fill="none" stroke="#111" stroke-width="1"/>
  <line x1="510" y1="726" x2="510" y2="870" stroke="#111" stroke-width="4"/>
  <text x="522" y="744" font-size="11" font-weight="bold">Jaringan Komputer</text>
  <text x="522" y="760" font-size="10">13:00 - 14:40</text>
  <text x="522" y="774" font-size="10">Ruang Server</text>
  <text x="522" y="788" font-size="10">2024/2025 · Reguler</text>
  <rect x="522" y="808" width="100" height="14" rx="7" fill="none" stroke="#111" stroke-width="1.5"/>
  <text x="572" y="820" text-anchor="middle" font-size="9" fill="#111">★ Ibu Fitri N.</text>

  <!-- DAY CARD: SABTU (empty) -->
  <rect x="800" y="680" width="280" height="200" fill="none" stroke="#111" stroke-width="1.5"/>
  <rect x="800" y="680" width="280" height="36" fill="#ddd" stroke="#111" stroke-width="1.5"/>
  <text x="940" y="703" text-anchor="middle" font-size="13" font-weight="bold">SABTU</text>
  <rect x="1054" y="688" width="22" height="18" rx="9" fill="none" stroke="#111" stroke-width="1.5"/>
  <text x="1065" y="701" text-anchor="middle" font-size="10" fill="#111">0</text>
  <text x="940" y="775" text-anchor="middle" font-size="28">☽</text>
  <text x="940" y="800" text-anchor="middle" font-size="12">Tidak ada jadwal</text>

  <!-- ===== 3-DOT DROPDOWN MENU ===== -->
  <text x="200" y="910" font-size="11" font-weight="bold">Dropdown Menu (klik ⋮ pada kartu):</text>
  <rect x="200" y="918" width="180" height="122" fill="#fff" stroke="#111" stroke-width="1"/>
  <rect x="200" y="918" width="180" height="32" fill="#eee" stroke="#111" stroke-width="1"/>
  <text x="218" y="939" font-size="11">👁 Lihat Detail</text>
  <line x1="200" y1="950" x2="380" y2="950" stroke="#111" stroke-width="0.5"/>
  <text x="218" y="968" font-size="11">✏ Edit</text>
  <line x1="200" y1="978" x2="380" y2="978" stroke="#111" stroke-width="0.5"/>
  <text x="218" y="996" font-size="11">👥 Kelola Mahasiswa</text>
  <line x1="200" y1="1006" x2="380" y2="1006" stroke="#111" stroke-width="0.5" stroke-dasharray="4,3"/>
  <text x="218" y="1030" font-size="11">🗑 Hapus</text>

  <!-- ===== MODAL: DETAIL JADWAL ===== -->
  <text x="200" y="1066" font-size="11" font-weight="bold">Modal: Detail Jadwal Mengajar (modal-lg)</text>

  <rect x="200" y="1074" width="590" height="224" fill="#fff" stroke="#111" stroke-width="2"/>
  <!-- Modal header -->
  <rect x="200" y="1074" width="590" height="38" fill="#ddd" stroke="#111" stroke-width="1.5"/>
  <text x="218" y="1098" font-size="12" font-weight="bold">DETAIL JADWAL MENGAJAR</text>
  <text x="778" y="1098" text-anchor="end" font-size="14">✕</text>

  <!-- Modal body: 2 columns -->
  <rect x="210" y="1120" width="278" height="140" fill="none" stroke="#111" stroke-width="1"/>
  <rect x="210" y="1120" width="278" height="26" fill="#eee" stroke="#111" stroke-width="1"/>
  <text x="222" y="1138" font-size="11" font-weight="bold">DETAIL MATA KULIAH</text>
  <text x="222" y="1160" font-size="10">Kode MK</text>
  <rect x="350" y="1148" width="50" height="16" rx="8" fill="none" stroke="#111" stroke-width="1.5"/>
  <text x="375" y="1160" text-anchor="middle" font-size="9" fill="#111">MK001</text>
  <line x1="210" y1="1166" x2="488" y2="1166" stroke="#ccc" stroke-width="0.8"/>
  <text x="222" y="1180" font-size="10">Nama MK</text>
  <text x="350" y="1180" font-size="10" font-weight="bold">Pemrograman Web</text>
  <line x1="210" y1="1186" x2="488" y2="1186" stroke="#ccc" stroke-width="0.8"/>
  <text x="222" y="1200" font-size="10">Semester</text>
  <text x="350" y="1200" font-size="10">5</text>
  <line x1="210" y1="1206" x2="488" y2="1206" stroke="#ccc" stroke-width="0.8"/>
  <text x="222" y="1220" font-size="10">Jumlah SKS</text>
  <rect x="350" y="1208" width="45" height="16" rx="8" fill="none" stroke="#111" stroke-width="1.5"/>
  <text x="372" y="1220" text-anchor="middle" font-size="9" fill="#111">3 SKS</text>
  <line x1="210" y1="1226" x2="488" y2="1226" stroke="#ccc" stroke-width="0.8"/>
  <text x="222" y="1246" font-size="10">...</text>

  <rect x="500" y="1120" width="278" height="140" fill="none" stroke="#111" stroke-width="1"/>
  <rect x="500" y="1120" width="278" height="26" fill="#eee" stroke="#111" stroke-width="1"/>
  <text x="512" y="1138" font-size="11" font-weight="bold">DETAIL JADWAL</text>
  <text x="512" y="1160" font-size="10">Program Studi</text>
  <text x="620" y="1160" font-size="10">Teknik Informatika</text>
  <line x1="500" y1="1166" x2="778" y2="1166" stroke="#ccc" stroke-width="0.8"/>
  <text x="512" y="1180" font-size="10">Tahun Akademik</text>
  <text x="620" y="1180" font-size="10">2024/2025 Genap</text>
  <line x1="500" y1="1186" x2="778" y2="1186" stroke="#ccc" stroke-width="0.8"/>
  <text x="512" y="1200" font-size="10">Kelas</text>
  <rect x="620" y="1188" width="24" height="16" rx="8" fill="none" stroke="#111" stroke-width="1.5"/>
  <text x="632" y="1200" text-anchor="middle" font-size="9" fill="#111">A</text>
  <line x1="500" y1="1206" x2="778" y2="1206" stroke="#ccc" stroke-width="0.8"/>
  <text x="512" y="1220" font-size="10">Hari &amp; Waktu</text>
  <text x="620" y="1220" font-size="10">Senin, 08:00-09:40</text>
  <line x1="500" y1="1226" x2="778" y2="1226" stroke="#ccc" stroke-width="0.8"/>
  <text x="512" y="1246" font-size="10">Ruang</text>
  <text x="620" y="1246" font-size="10">Lab Komputer 1</text>

  <!-- Modal footer -->
  <rect x="200" y="1268" width="590" height="30" fill="#eee" stroke="#111" stroke-width="1"/>
  <rect x="700" y="1274" width="80" height="20" fill="none" stroke="#111" stroke-width="1"/>
  <text x="740" y="1288" text-anchor="middle" font-size="11">Tutup</text>

  <!-- ===== MODAL: DELETE CONFIRMATION ===== -->
  <text x="820" y="910" font-size="11" font-weight="bold">Modal: Konfirmasi Hapus</text>
  <rect x="820" y="918" width="260" height="192" fill="#fff" stroke="#111" stroke-width="2"/>
  <!-- Modal header -->
  <rect x="820" y="918" width="260" height="38" fill="none" stroke="#111" stroke-width="1.5"/>
  <text x="838" y="942" font-size="11" font-weight="bold" fill="#111">KONFIRMASI PENGHAPUSAN</text>
  <!-- Modal body -->
  <text x="836" y="976" font-size="11">Apakah Anda yakin ingin</text>
  <text x="836" y="991" font-size="11">menghapus jadwal untuk:</text>
  <rect x="830" y="998" width="242" height="28" fill="none" stroke="#111" stroke-width="1" stroke-dasharray="4,3"/>
  <text x="836" y="1016" font-size="11" font-weight="bold">Pemrograman Web</text>
  <text x="836" y="1038" font-size="10">Tindakan ini tidak dapat dibatalkan.</text>
  <!-- Modal footer -->
  <rect x="820" y="1080" width="260" height="30" fill="#eee" stroke="#111" stroke-width="1"/>
  <rect x="830" y="1084" width="70" height="20" fill="#fff" stroke="#111" stroke-width="1"/>
  <text x="865" y="1098" text-anchor="middle" font-size="11">Batal</text>
  <rect x="910" y="1084" width="80" height="20" fill="none" stroke="#111" stroke-width="1.5"/>
  <text x="950" y="1098" text-anchor="middle" font-size="11" fill="#111">Ya, Hapus</text>

  <!-- ===== MODAL: SYNC API ===== -->
  <text x="820" y="1074" font-size="11" font-weight="bold">Modal: Sync dari API</text>

  <!-- outer border label -->
  <text x="200" y="1308" font-size="10" fill="#555">* Kartu jadwal dapat diklik untuk membuka modal detail · Warna border kiri berbeda tiap mata kuliah</text>

</svg>
